<svg id="Layer_6" data-name="Layer 6" xmlns="http://www.w3.org/2000/svg" viewBox="0 0 990 990"><defs><style>.cls-1{stroke:#000;stroke-miterlimit:10;}</style></defs><path class="cls-1" d="M500,5.5C226.9,5.5,5.5,226.9,5.5,500S226.9,994.5,500,994.5,994.5,773.1,994.5,500,773.1,5.5,500,5.5Zm0,932C257.55,937.5,61,741,61,498.5s196.55-439,439-439,439,196.55,439,439S742.45,937.5,500,937.5Z" transform="translate(-5 -5)"/><path class="cls-1" d="M346.5,921.5s42-3,46-22,0-84.09,0-84.09-19.73,18.91-92.37,0C235.5,783.5,247.5,750.5,235.5,742.5c-10-17-21-38-55-58-15-11,14-16,29-13,16,7,28,4,48,34,20,34,47,54,69,54s44.56,4.7,67.78-9.15c3.22-17.85-5.78-16.85,25.22-58.85,8-3-35-3-44-6s-151-18-156-195c2-92,22-96,45-131-9-34-16-76,6-117,47-4,102,37,118,45s57-41,220,1c0,0,79.7-54.55,123.85-46.27S736.5,358.5,735.5,359.5s49,48,43,123-4,185-199,209c0,0,29,19,28,77s0,125,0,125-1,27,32,25-49,45-49,45-232-9-230-9S346.5,921.5,346.5,921.5Z" transform="translate(-5 -5)"/></svg>