<svg id="Layer_7" data-name="Layer 7" xmlns="http://www.w3.org/2000/svg" viewBox="0 0 1001.5 1001.5"><defs><style>.cls-1{stroke:#000;stroke-miterlimit:10;}</style></defs><path class="cls-1" d="M713-.5H286.5C128-.5-.5,128-.5,286.5V713c0,158.5,128.5,287,287,287H713c158.5,0,287-128.5,287-287V286.5C1000,128,871.5-.5,713-.5ZM912.33,706.34c0,115-93.2,208.18-208.18,208.18h-411c-115,0-208.18-93.2-208.18-208.18v-411c0-115,93.2-208.18,208.18-208.18h411c115,0,208.18,93.2,208.18,208.18Z" transform="translate(1 1)"/><path class="cls-1" d="M498.11,226.34c-151.91,0-275.06,123.14-275.06,275S346.2,776.45,498.11,776.45s275-123.15,275-275.06S650,226.34,498.11,226.34Zm0,461.35c-102.29,0-185.2-82.92-185.2-185.2s82.91-185.2,185.2-185.2S683.3,400.21,683.3,502.49,600.39,687.69,498.11,687.69Z" transform="translate(1 1)"/><circle class="cls-1" cx="774.16" cy="231.72" r="42.74"/></svg>