<svg id="Layer_8" data-name="Layer 8" xmlns="http://www.w3.org/2000/svg" viewBox="0 0 982.89 982.27"><path d="M223.09,321H49.91A29.41,29.41,0,0,0,20.5,350.41V958.59A29.41,29.41,0,0,0,49.91,988H223.09a29.41,29.41,0,0,0,29.41-29.41V350.41A29.41,29.41,0,0,0,223.09,321ZM222,951.34a6.66,6.66,0,0,1-6.66,6.66H56.66A6.66,6.66,0,0,1,50,951.34V356.66A6.66,6.66,0,0,1,56.66,350H215.34a6.66,6.66,0,0,1,6.66,6.66Z" transform="translate(-7 -7)"/><path d="M136.5,7A129.5,129.5,0,1,0,266,136.5,129.5,129.5,0,0,0,136.5,7Zm0,233a101,101,0,1,1,101-101A101,101,0,0,1,136.5,240Z" transform="translate(-7 -7)"/><path d="M989,579c-2-249-155-268-240-275s-185.06,67.27-185.06,67.27S560,373,562.54,350c2.46-29-24.72-29-24.72-29S403,323,372.57,321s-31.23,29-31.23,29V958c.33,39,29.93,30.49,29.93,30.49S512,990,543,988.49,573,958,573,958s-7-258,3-326,5-114,97-119,86,116,86,116,1,300,0,329,24.73,30.49,24.73,30.49S938,983,967.22,988,989,958,989,958,991,828,989,579ZM789,958l-1-341s3-140-114-134-121,92-121,92-9,69-10,82-.41,301-.41,301H373V350H535.22S537,404,538,409s8,21,8,21l20-8s62-92,179-86,206,46,211,233,5.14,389,5.14,389Z" transform="translate(-7 -7)"/></svg>